<svg id="svg" version="1.1" xmlns="http://www.w3.org/2000/svg" xmlns:xlink="http://www.w3.org/1999/xlink" width="400" height="400" viewBox="0, 0, 400,400"><g id="svgg"><path id="path0" d="M313.200 178.191 L 313.200 192.781 311.300 194.706 C 309.510 196.520,306.994 198.791,304.768 200.600 C 302.822 202.183,297.192 206.400,297.026 206.400 C 296.933 206.400,295.726 207.151,294.344 208.069 C 289.690 211.160,282.217 214.992,276.800 217.064 C 275.370 217.612,273.887 218.226,273.505 218.430 C 273.123 218.633,272.536 218.800,272.200 218.800 C 271.864 218.800,271.277 218.965,270.895 219.166 C 270.159 219.554,265.417 220.956,263.400 221.382 C 262.740 221.522,261.480 221.810,260.600 222.023 C 258.554 222.518,254.812 223.171,252.000 223.524 L 249.800 223.800 249.800 250.400 C 249.800 276.851,249.861 278.404,251.222 286.400 C 251.774 289.644,252.742 294.375,253.228 296.200 C 253.462 297.080,253.799 298.430,253.978 299.200 C 254.318 300.668,256.236 306.755,256.845 308.300 C 257.040 308.795,257.362 309.605,257.560 310.100 C 257.757 310.595,258.149 311.630,258.430 312.400 C 261.179 319.933,269.429 334.758,274.198 340.735 C 284.978 354.243,294.416 363.034,306.400 370.728 C 308.490 372.070,310.875 373.623,311.700 374.180 L 313.200 375.192 313.200 387.596 C 313.200 399.423,313.235 400.000,313.944 400.000 C 315.715 400.000,318.364 399.465,318.167 399.147 C 318.049 398.956,318.424 398.800,319.000 398.800 C 319.596 398.800,319.941 398.628,319.800 398.400 C 319.664 398.180,319.923 398.000,320.376 398.000 C 320.829 398.000,321.200 397.820,321.200 397.600 C 321.200 397.380,321.545 397.200,321.967 397.200 C 322.388 397.200,322.825 396.975,322.936 396.700 C 323.093 396.314,323.227 396.326,323.526 396.753 C 323.836 397.196,323.966 397.136,324.183 396.453 C 324.381 395.831,324.799 395.589,325.727 395.560 C 326.944 395.522,326.956 395.506,326.000 395.200 C 325.041 394.893,325.037 394.878,325.900 394.840 C 326.395 394.818,326.800 394.620,326.800 394.400 C 326.800 394.180,327.120 394.000,327.512 394.000 C 327.903 394.000,328.483 393.640,328.800 393.200 C 329.117 392.760,329.697 392.400,330.088 392.400 C 330.480 392.400,330.800 392.220,330.800 392.000 C 330.800 391.780,331.070 391.600,331.400 391.600 C 331.730 391.600,332.000 391.399,332.000 391.153 C 332.000 390.908,332.347 390.797,332.770 390.908 C 333.293 391.045,333.476 390.941,333.338 390.584 C 333.195 390.209,333.394 390.126,334.031 390.292 C 334.648 390.454,334.836 390.383,334.639 390.063 C 334.451 389.758,334.703 389.600,335.376 389.600 C 335.939 389.600,336.400 389.464,336.400 389.298 C 336.400 389.131,336.931 388.760,337.581 388.473 C 338.231 388.185,338.873 387.601,339.008 387.175 C 339.143 386.749,339.542 386.400,339.894 386.400 C 340.245 386.400,340.422 386.289,340.286 386.152 C 339.827 385.694,341.133 384.800,342.271 384.794 C 342.901 384.790,343.198 384.658,342.944 384.494 C 342.611 384.279,342.630 384.068,343.015 383.712 C 343.429 383.327,343.583 383.327,343.739 383.712 C 343.848 383.980,343.951 383.872,343.968 383.471 C 344.008 382.555,344.940 381.600,345.795 381.600 C 346.154 381.600,346.336 381.420,346.200 381.200 C 346.064 380.980,346.128 380.800,346.343 380.800 C 346.558 380.800,346.824 381.025,346.935 381.300 C 347.054 381.595,347.150 381.508,347.168 381.089 C 347.203 380.301,350.800 376.500,350.800 377.251 C 350.800 377.734,352.205 376.297,352.549 375.463 C 352.680 375.143,352.880 375.185,353.196 375.600 C 353.568 376.089,353.606 376.034,353.399 375.300 C 353.250 374.771,353.322 374.400,353.573 374.400 C 353.808 374.400,354.000 374.591,354.000 374.824 C 354.000 375.057,354.183 375.134,354.407 374.996 C 354.630 374.858,354.692 374.549,354.545 374.311 C 354.397 374.072,354.460 373.990,354.685 374.129 C 355.165 374.426,356.526 373.059,356.137 372.670 C 355.991 372.524,356.198 372.044,356.598 371.602 C 357.374 370.745,358.237 370.492,357.762 371.262 C 357.579 371.557,357.653 371.615,357.965 371.421 C 358.234 371.255,358.372 370.905,358.272 370.643 C 358.171 370.381,358.339 369.825,358.644 369.407 C 358.950 368.989,359.200 368.796,359.200 368.979 C 359.200 369.161,359.726 368.649,360.368 367.840 C 361.332 366.627,361.568 366.495,361.721 367.085 C 361.839 367.539,361.924 367.395,361.954 366.691 C 362.001 365.556,366.393 360.623,366.406 361.691 C 366.411 362.063,366.508 362.048,366.769 361.636 C 366.965 361.326,367.022 360.802,366.895 360.471 C 366.745 360.079,366.827 359.970,367.132 360.158 C 367.416 360.334,367.600 360.191,367.600 359.795 C 367.600 358.965,368.598 357.953,369.279 358.093 C 369.585 358.156,369.852 357.747,369.927 357.100 C 370.005 356.420,370.293 356.000,370.682 356.000 C 371.334 356.000,372.370 354.902,372.381 354.200 C 372.385 353.980,372.213 354.070,372.000 354.400 C 371.787 354.730,371.615 354.820,371.619 354.600 C 371.632 353.777,372.704 352.725,372.964 353.279 C 373.099 353.565,373.130 353.381,373.034 352.868 C 372.905 352.186,373.010 351.995,373.426 352.155 C 373.788 352.294,374.219 351.906,374.616 351.086 C 375.174 349.933,375.175 349.880,374.619 350.576 C 374.279 351.004,374.000 351.529,374.000 351.743 C 374.000 351.958,373.903 352.037,373.785 351.918 C 373.496 351.629,374.440 349.600,374.864 349.600 C 375.049 349.600,375.200 349.330,375.200 349.000 C 375.200 348.670,375.359 348.400,375.553 348.400 C 375.748 348.400,376.006 348.022,376.126 347.560 C 376.247 347.098,376.536 346.837,376.768 346.981 C 377.011 347.130,377.103 347.013,376.986 346.707 C 376.873 346.413,377.145 345.781,377.590 345.303 C 378.036 344.825,378.400 344.156,378.400 343.817 C 378.400 343.478,378.580 343.200,378.800 343.200 C 379.020 343.200,379.203 342.795,379.206 342.300 C 379.211 341.572,379.286 341.515,379.600 342.000 C 379.918 342.492,379.989 342.449,379.994 341.761 C 379.997 341.291,380.395 340.732,380.900 340.488 C 381.395 340.249,381.575 340.042,381.300 340.027 C 380.461 339.982,380.744 339.200,381.600 339.200 C 382.040 339.200,382.400 339.009,382.400 338.776 C 382.400 338.543,382.220 338.464,382.000 338.600 C 381.780 338.736,381.600 338.657,381.600 338.424 C 381.600 338.191,382.005 337.986,382.500 337.968 C 382.995 337.951,383.175 337.846,382.900 337.735 C 382.625 337.624,382.400 337.268,382.400 336.943 C 382.400 336.618,382.544 336.442,382.719 336.550 C 382.895 336.658,383.300 336.582,383.619 336.380 C 384.018 336.128,384.043 336.010,383.700 336.006 C 383.425 336.003,383.200 335.809,383.200 335.576 C 383.200 335.343,383.380 335.264,383.600 335.400 C 383.834 335.545,384.013 335.098,384.032 334.324 C 384.049 333.596,384.153 333.223,384.264 333.496 C 384.418 333.877,384.596 333.861,385.032 333.425 C 385.684 332.773,385.794 332.233,385.200 332.600 C 384.980 332.736,384.800 332.657,384.800 332.424 C 384.800 332.191,384.980 332.000,385.200 332.000 C 385.420 332.000,385.600 331.651,385.600 331.224 C 385.600 330.797,385.780 330.336,386.000 330.200 C 386.220 330.064,386.400 329.603,386.400 329.176 C 386.400 328.749,386.580 328.400,386.800 328.400 C 387.020 328.400,387.200 328.040,387.200 327.600 C 387.200 327.160,387.453 326.800,387.763 326.800 C 388.128 326.800,388.252 326.520,388.116 326.000 C 387.999 325.553,388.104 325.200,388.353 325.200 C 388.599 325.200,388.800 324.666,388.800 324.013 C 388.800 323.104,388.946 322.881,389.420 323.063 C 389.919 323.255,389.989 323.095,389.777 322.251 C 389.609 321.582,389.677 321.200,389.964 321.200 C 390.246 321.200,390.321 320.824,390.164 320.200 C 390.010 319.584,390.083 319.200,390.357 319.200 C 390.600 319.200,390.800 318.750,390.800 318.200 C 390.800 317.650,390.980 317.200,391.200 317.200 C 391.420 317.200,391.600 316.734,391.600 316.164 C 391.600 315.592,392.003 314.773,392.500 314.334 C 392.995 313.897,393.175 313.653,392.900 313.793 C 392.605 313.943,392.400 313.791,392.400 313.424 C 392.400 313.081,392.580 312.800,392.800 312.800 C 393.020 312.800,393.200 312.260,393.200 311.600 C 393.200 310.940,393.380 310.400,393.600 310.400 C 393.820 310.400,394.000 309.836,394.000 309.147 C 394.000 308.362,394.322 307.615,394.861 307.147 C 395.335 306.736,395.515 306.400,395.261 306.400 C 395.008 306.400,394.800 306.029,394.800 305.576 C 394.800 305.123,394.980 304.864,395.200 305.000 C 395.441 305.149,395.600 304.612,395.600 303.647 C 395.600 302.767,395.780 301.936,396.000 301.800 C 396.220 301.664,396.400 300.843,396.400 299.976 C 396.400 299.109,396.580 298.400,396.800 298.400 C 397.020 298.400,397.200 297.500,397.200 296.400 C 397.200 295.300,397.380 294.400,397.600 294.400 C 397.820 294.400,398.000 293.511,398.000 292.424 C 398.000 291.337,398.180 290.336,398.400 290.200 C 398.620 290.064,398.800 288.693,398.800 287.153 C 398.800 285.517,398.956 284.449,399.174 284.584 C 399.740 284.934,399.843 279.314,399.930 243.300 C 399.983 221.338,399.874 210.400,399.604 210.400 C 399.382 210.400,399.200 210.124,399.200 209.787 C 399.200 205.369,393.116 201.200,386.670 201.200 C 381.552 201.200,370.851 199.696,366.600 198.380 C 362.737 197.184,357.582 195.406,356.200 194.792 C 355.320 194.401,354.015 193.839,353.300 193.543 C 352.585 193.247,352.000 192.869,352.000 192.702 C 352.000 192.536,351.640 192.400,351.200 192.400 C 350.760 192.400,350.400 192.220,350.400 192.000 C 350.400 191.780,350.117 191.600,349.772 191.600 C 349.427 191.600,348.359 191.060,347.400 190.400 C 346.441 189.740,345.532 189.200,345.380 189.200 C 344.933 189.200,338.828 184.850,335.800 182.374 C 331.081 178.515,326.372 173.676,322.925 169.143 C 320.459 165.900,316.785 163.600,314.072 163.600 L 313.200 163.600 313.200 178.191 M341.081 257.650 C 343.642 258.680,344.276 259.026,345.815 260.240 C 347.281 261.397,348.283 262.975,349.549 266.119 C 350.227 267.802,350.094 270.355,349.200 272.800 C 348.760 274.004,348.400 275.072,348.400 275.175 C 348.400 275.609,314.054 309.768,312.600 310.779 C 309.610 312.859,305.068 312.979,301.207 311.081 C 298.649 309.824,278.508 289.657,277.356 287.200 C 275.103 282.393,275.101 280.767,277.343 276.053 C 279.320 271.898,282.885 269.800,287.972 269.800 C 292.607 269.800,293.639 270.419,300.852 277.527 L 306.704 283.294 309.970 280.147 C 311.767 278.416,317.252 273.034,322.159 268.188 C 328.134 262.286,331.596 259.163,332.640 258.733 C 333.498 258.379,334.650 257.902,335.200 257.672 C 336.548 257.109,339.705 257.097,341.081 257.650 M266.602 370.002 C 267.002 370.444,267.411 370.722,267.512 370.621 C 267.728 370.405,266.588 369.200,266.167 369.200 C 266.007 369.200,266.203 369.561,266.602 370.002 " stroke="none" fill="#4edb9e" fill-rule="evenodd"></path><path id="path1" d="M399.200 16.400 C 399.200 16.840,399.020 17.200,398.800 17.200 C 398.580 17.200,398.400 17.468,398.400 17.795 C 398.400 18.686,249.771 167.150,245.331 170.694 C 242.861 172.666,238.487 175.600,238.018 175.600 C 237.788 175.600,237.600 175.752,237.600 175.937 C 237.600 176.123,236.745 176.708,235.700 177.237 C 234.655 177.767,233.740 178.335,233.667 178.500 C 233.593 178.665,233.188 178.800,232.767 178.800 C 232.345 178.800,232.000 178.980,232.000 179.200 C 232.000 179.420,231.640 179.600,231.200 179.600 C 230.760 179.600,230.400 179.780,230.400 180.000 C 230.400 180.220,230.128 180.400,229.795 180.400 C 229.462 180.400,228.877 180.559,228.495 180.753 C 228.113 180.948,227.260 181.329,226.600 181.600 C 225.940 181.871,225.087 182.252,224.705 182.447 C 224.323 182.641,223.736 182.800,223.400 182.800 C 223.064 182.800,222.477 182.962,222.095 183.161 C 221.469 183.486,220.561 183.762,216.600 184.832 C 208.257 187.086,194.639 187.257,184.600 185.233 C 183.500 185.012,182.013 184.713,181.295 184.569 C 180.577 184.425,179.892 184.149,179.771 183.954 C 179.651 183.759,179.124 183.600,178.600 183.600 C 178.076 183.600,177.536 183.420,177.400 183.200 C 177.264 182.980,176.724 182.800,176.200 182.800 C 175.676 182.800,175.136 182.620,175.000 182.400 C 174.864 182.180,174.447 182.000,174.074 182.000 C 173.016 182.000,162.920 176.757,159.763 174.567 C 154.188 170.702,152.475 169.187,142.849 159.607 L 133.098 149.903 67.904 215.051 C -6.399 289.302,-0.393 282.731,0.152 289.185 C 0.292 290.843,0.585 292.260,0.803 292.333 C 1.021 292.407,1.200 292.797,1.200 293.200 C 1.200 293.603,1.425 294.025,1.700 294.136 C 2.078 294.290,2.057 294.439,1.611 294.748 C 1.112 295.095,1.142 295.203,1.810 295.459 C 2.915 295.883,4.400 297.444,4.400 298.182 C 4.400 298.924,5.039 299.002,5.367 298.300 C 5.553 297.900,5.647 297.900,5.833 298.300 C 5.962 298.575,6.592 298.800,7.233 298.800 C 7.875 298.800,8.400 298.980,8.400 299.200 C 8.400 299.422,9.467 299.600,10.800 299.600 C 12.133 299.600,13.200 299.778,13.200 300.000 C 13.200 300.266,49.533 300.400,121.400 300.400 C 218.626 300.400,229.600 300.337,229.600 299.783 C 229.600 299.444,229.331 297.779,229.001 296.083 C 227.763 289.707,227.625 288.927,227.220 286.000 C 226.378 279.924,226.318 277.552,226.152 244.223 C 225.998 213.442,226.044 210.111,226.634 208.823 C 229.411 202.761,232.198 201.149,240.593 200.746 C 246.467 200.463,253.271 199.567,257.376 198.535 C 260.764 197.683,267.031 195.641,268.321 194.968 C 268.915 194.658,269.532 194.404,269.692 194.402 C 270.255 194.398,276.629 191.240,278.125 190.225 C 278.956 189.661,279.724 189.200,279.833 189.200 C 280.071 189.200,287.314 184.372,287.600 184.023 C 287.710 183.889,288.610 183.166,289.600 182.415 C 291.808 180.742,300.000 172.642,300.000 172.132 C 300.000 171.929,300.720 171.059,301.600 170.200 C 302.480 169.341,303.200 168.439,303.200 168.197 C 303.200 167.514,305.621 165.362,307.446 164.423 C 313.053 161.537,319.713 163.340,323.285 168.712 C 323.619 169.213,324.636 170.417,325.546 171.388 C 326.456 172.359,327.200 173.314,327.200 173.510 C 327.200 174.868,343.872 188.400,345.545 188.400 C 345.758 188.400,345.993 188.556,346.067 188.747 C 346.251 189.227,354.071 193.270,357.000 194.399 C 358.320 194.908,359.571 195.477,359.780 195.662 C 359.989 195.848,360.486 196.000,360.885 196.000 C 361.284 196.000,361.923 196.161,362.305 196.358 C 363.856 197.157,370.748 198.851,375.400 199.575 C 378.126 199.999,379.357 200.105,387.900 200.645 C 390.155 200.788,392.000 201.061,392.000 201.252 C 392.000 201.444,392.274 201.600,392.608 201.600 C 394.269 201.600,397.398 204.378,398.803 207.100 C 399.286 208.035,399.753 208.800,399.840 208.800 C 399.928 208.800,400.000 165.330,400.000 112.200 C 400.000 48.067,399.866 15.600,399.600 15.600 C 399.380 15.600,399.200 15.960,399.200 16.400 " stroke="none" fill="#fba04e" fill-rule="evenodd"></path><path id="path2" d="M6.241 0.286 C 5.824 0.394,5.047 0.916,4.515 1.448 C 3.983 1.980,3.352 2.294,3.112 2.146 C 2.851 1.985,2.791 2.062,2.962 2.338 C 3.131 2.612,2.993 2.800,2.624 2.800 C 2.281 2.800,2.000 3.094,2.000 3.453 C 2.000 3.812,1.595 4.457,1.100 4.887 L 0.200 5.667 0.113 145.734 L 0.026 285.800 1.369 283.000 C 2.652 280.323,5.567 277.346,67.905 215.051 L 133.098 149.903 142.849 159.607 C 152.475 169.187,154.188 170.702,159.763 174.567 C 162.920 176.757,173.016 182.000,174.074 182.000 C 174.447 182.000,174.864 182.180,175.000 182.400 C 175.136 182.620,175.676 182.800,176.200 182.800 C 176.724 182.800,177.264 182.980,177.400 183.200 C 177.536 183.420,178.076 183.600,178.600 183.600 C 179.124 183.600,179.651 183.759,179.771 183.954 C 179.892 184.149,180.577 184.425,181.295 184.569 C 182.013 184.713,183.500 185.012,184.600 185.233 C 194.876 187.305,208.088 187.095,217.000 184.718 C 220.258 183.850,221.417 183.493,222.095 183.151 C 222.477 182.958,223.064 182.800,223.400 182.800 C 223.736 182.800,224.323 182.641,224.705 182.447 C 225.087 182.252,225.940 181.871,226.600 181.600 C 227.260 181.329,228.113 180.948,228.495 180.753 C 228.877 180.559,229.462 180.400,229.795 180.400 C 230.128 180.400,230.400 180.220,230.400 180.000 C 230.400 179.780,230.760 179.600,231.200 179.600 C 231.640 179.600,232.000 179.420,232.000 179.200 C 232.000 178.980,232.345 178.800,232.767 178.800 C 233.188 178.800,233.593 178.665,233.667 178.500 C 233.740 178.335,234.655 177.767,235.700 177.237 C 236.745 176.708,237.600 176.123,237.600 175.937 C 237.600 175.752,237.788 175.600,238.018 175.600 C 238.487 175.600,242.861 172.666,245.331 170.694 C 249.771 167.150,398.400 18.686,398.400 17.795 C 398.400 17.468,398.580 17.200,398.800 17.200 C 399.020 17.200,399.200 16.840,399.200 16.400 C 399.200 15.960,399.380 15.600,399.600 15.600 C 400.303 15.600,400.096 7.324,399.354 5.760 C 398.999 5.012,398.549 4.400,398.354 4.400 C 398.159 4.400,398.000 4.117,398.000 3.771 C 398.000 3.058,397.255 2.261,396.416 2.075 C 396.105 2.006,395.509 1.556,395.092 1.075 L 394.333 0.200 200.666 0.146 C 94.150 0.116,6.659 0.179,6.241 0.286 M304.791 166.256 C 303.904 167.057,303.244 167.777,303.324 167.857 C 303.403 167.936,304.225 167.281,305.151 166.401 C 307.254 164.400,306.971 164.286,304.791 166.256 M301.000 170.800 C 300.368 171.460,300.019 171.990,300.225 171.978 C 300.578 171.957,302.639 169.600,302.305 169.600 C 302.220 169.600,301.632 170.140,301.000 170.800 M296.433 175.915 C 296.121 176.292,295.494 177.050,295.039 177.600 C 294.583 178.150,294.973 177.888,295.905 177.019 C 296.837 176.149,297.600 175.384,297.600 175.319 C 297.600 174.974,296.929 175.317,296.433 175.915 M226.114 275.400 C 226.117 276.500,226.195 276.903,226.287 276.295 C 226.379 275.686,226.377 274.786,226.282 274.295 C 226.187 273.803,226.111 274.300,226.114 275.400 M0.248 291.924 C 0.389 293.621,1.369 295.185,1.919 294.593 C 2.074 294.427,1.975 294.210,1.700 294.112 C 1.425 294.014,1.200 293.588,1.200 293.167 C 1.200 292.745,1.031 292.400,0.825 292.400 C 0.619 292.400,0.373 291.905,0.277 291.300 C 0.182 290.695,0.169 290.976,0.248 291.924 M2.000 295.853 C 2.000 296.210,4.131 298.002,4.325 297.808 C 4.502 297.631,2.564 295.600,2.218 295.600 C 2.098 295.600,2.000 295.714,2.000 295.853 M5.200 298.336 C 5.200 298.735,6.992 299.600,7.819 299.600 C 8.138 299.600,8.400 299.750,8.400 299.934 C 8.400 300.118,9.480 300.308,10.800 300.355 C 12.268 300.408,13.200 300.278,13.200 300.021 C 13.200 299.773,12.213 299.600,10.800 299.600 C 9.467 299.600,8.400 299.422,8.400 299.200 C 8.400 298.980,7.860 298.800,7.200 298.800 C 6.540 298.800,6.000 298.620,6.000 298.400 C 6.000 298.180,5.820 298.000,5.600 298.000 C 5.380 298.000,5.200 298.151,5.200 298.336 " stroke="none" fill="#fbec5e" fill-rule="evenodd"></path><path id="path3" d="M309.397 163.748 C 306.550 164.818,305.120 166.032,302.012 170.019 C 298.333 174.737,291.118 181.843,288.451 183.374 C 288.093 183.580,287.546 184.001,287.236 184.309 C 286.745 184.798,284.880 186.112,282.850 187.400 C 282.503 187.620,281.225 188.442,280.009 189.227 C 274.786 192.599,263.475 197.281,257.400 198.585 C 256.740 198.727,255.390 199.017,254.400 199.229 C 250.914 199.977,246.542 200.480,241.000 200.769 C 232.295 201.224,228.880 203.131,226.795 208.704 C 224.676 214.368,225.841 278.157,228.313 291.800 C 228.919 295.148,229.359 298.896,229.306 300.280 C 229.255 301.645,229.390 302.870,229.606 303.004 C 229.823 303.138,230.000 303.766,230.000 304.400 C 230.000 305.034,230.180 305.664,230.400 305.800 C 230.620 305.936,230.800 306.566,230.800 307.200 C 230.800 307.834,230.980 308.464,231.200 308.600 C 231.420 308.736,231.600 309.377,231.600 310.024 C 231.600 310.671,231.780 311.200,232.000 311.200 C 232.220 311.200,232.400 311.740,232.400 312.400 C 232.400 313.060,232.580 313.600,232.800 313.600 C 233.020 313.600,233.200 314.140,233.200 314.800 C 233.200 315.460,233.380 316.000,233.600 316.000 C 233.820 316.000,234.000 316.540,234.000 317.200 C 234.000 317.860,234.180 318.400,234.400 318.400 C 234.620 318.400,234.800 318.672,234.800 319.005 C 234.800 319.338,234.959 319.923,235.153 320.305 C 235.348 320.687,235.682 321.450,235.897 322.000 C 236.111 322.550,236.672 323.782,237.143 324.738 C 237.614 325.694,238.000 326.729,238.000 327.038 C 238.000 327.347,238.180 327.600,238.400 327.600 C 238.620 327.600,238.800 327.960,238.800 328.400 C 238.800 328.840,238.980 329.200,239.200 329.200 C 239.420 329.200,239.600 329.661,239.600 330.224 C 239.600 330.804,239.773 331.140,240.000 331.000 C 240.226 330.861,240.400 331.185,240.400 331.743 C 240.400 332.288,240.542 332.793,240.716 332.867 C 240.982 332.979,243.272 337.385,243.384 338.000 C 243.471 338.476,245.800 342.212,246.085 342.333 C 246.258 342.407,246.400 342.729,246.400 343.050 C 246.400 343.371,246.760 344.020,247.200 344.492 C 247.640 344.964,248.000 345.587,248.000 345.875 C 248.000 346.164,248.180 346.400,248.400 346.400 C 248.620 346.400,248.800 346.636,248.800 346.925 C 248.800 347.213,249.115 347.798,249.500 348.225 C 249.885 348.651,250.455 349.495,250.768 350.100 C 251.080 350.705,251.485 351.200,251.668 351.200 C 251.850 351.200,252.000 351.443,252.000 351.741 C 252.000 352.038,252.540 352.846,253.200 353.537 C 253.860 354.228,254.400 354.882,254.400 354.992 C 254.400 355.194,255.391 356.458,256.300 357.416 C 256.575 357.706,256.800 358.063,256.800 358.211 C 256.800 358.358,257.310 358.956,257.933 359.540 C 258.557 360.123,259.291 361.020,259.566 361.534 C 260.237 362.791,261.247 363.956,264.825 367.601 C 266.488 369.296,268.198 371.115,268.625 371.644 C 269.051 372.172,270.210 373.233,271.200 374.000 C 272.190 374.768,274.025 376.432,275.278 377.698 C 276.531 378.964,277.670 380.000,277.809 380.000 C 277.949 380.000,278.754 380.720,279.600 381.600 C 280.446 382.480,281.293 383.200,281.483 383.200 C 281.673 383.200,282.632 383.915,283.614 384.789 C 284.597 385.662,285.625 386.382,285.900 386.389 C 286.175 386.395,286.400 386.538,286.400 386.706 C 286.400 386.874,287.120 387.456,288.000 388.000 C 288.880 388.544,289.600 389.114,289.600 389.267 C 289.600 389.421,289.977 389.666,290.438 389.812 C 290.898 389.958,292.049 390.600,292.996 391.239 C 293.942 391.877,294.832 392.400,294.975 392.400 C 295.117 392.400,295.620 392.760,296.092 393.200 C 296.564 393.640,297.187 394.000,297.475 394.000 C 297.764 394.000,298.000 394.180,298.000 394.400 C 298.000 394.620,298.360 394.800,298.800 394.800 C 299.240 394.800,299.600 394.980,299.600 395.200 C 299.600 395.420,299.870 395.600,300.200 395.600 C 300.530 395.600,300.800 395.780,300.800 396.000 C 300.800 396.220,301.070 396.400,301.400 396.400 C 301.730 396.400,302.000 396.580,302.000 396.800 C 302.000 397.020,302.360 397.200,302.800 397.200 C 303.240 397.200,303.600 397.380,303.600 397.600 C 303.600 397.820,303.960 398.000,304.400 398.000 C 304.840 398.000,305.200 398.180,305.200 398.400 C 305.200 398.620,305.545 398.800,305.967 398.800 C 306.388 398.800,306.802 399.005,306.885 399.255 C 306.973 399.518,308.337 399.793,310.118 399.907 L 313.200 400.105 313.200 387.649 L 313.200 375.192 311.700 374.180 C 310.875 373.623,308.490 372.070,306.400 370.728 C 294.416 363.034,284.978 354.243,274.198 340.735 C 269.429 334.758,261.179 319.933,258.430 312.400 C 257.781 310.622,257.411 309.654,256.899 308.400 C 256.285 306.897,254.348 300.794,253.978 299.200 C 253.799 298.430,253.462 297.080,253.228 296.200 C 252.742 294.375,251.774 289.644,251.222 286.400 C 249.861 278.404,249.800 276.851,249.800 250.400 L 249.800 223.800 252.000 223.524 C 254.812 223.171,258.554 222.518,260.600 222.023 C 261.480 221.810,262.740 221.522,263.400 221.382 C 265.417 220.956,270.159 219.554,270.895 219.166 C 271.277 218.965,271.864 218.800,272.200 218.800 C 272.536 218.800,273.123 218.633,273.505 218.430 C 273.887 218.226,275.370 217.612,276.800 217.064 C 282.217 214.992,289.690 211.160,294.344 208.069 C 295.726 207.151,296.933 206.400,297.026 206.400 C 297.192 206.400,302.822 202.183,304.768 200.600 C 306.994 198.791,309.510 196.520,311.300 194.706 L 313.200 192.781 313.200 178.191 L 313.200 163.600 314.072 163.600 C 316.785 163.600,320.459 165.900,322.925 169.143 C 326.372 173.676,331.081 178.515,335.800 182.374 C 338.828 184.850,344.933 189.200,345.380 189.200 C 345.532 189.200,346.441 189.740,347.400 190.400 C 348.359 191.060,349.427 191.600,349.772 191.600 C 350.117 191.600,350.400 191.780,350.400 192.000 C 350.400 192.220,350.760 192.400,351.200 192.400 C 351.640 192.400,352.000 192.536,352.000 192.702 C 352.000 192.869,352.585 193.247,353.300 193.543 C 354.015 193.839,355.320 194.401,356.200 194.792 C 357.582 195.406,362.737 197.184,366.600 198.380 C 370.851 199.696,381.552 201.200,386.670 201.200 C 393.116 201.200,399.200 205.369,399.200 209.787 C 399.200 210.124,399.380 210.400,399.600 210.400 C 401.489 210.400,397.099 203.715,394.318 202.356 C 391.546 201.002,390.876 200.850,386.600 200.603 C 378.897 200.159,373.757 199.516,369.200 198.425 C 368.210 198.188,366.811 197.881,366.090 197.743 C 365.370 197.605,364.684 197.336,364.567 197.146 C 364.449 196.956,363.924 196.800,363.400 196.800 C 362.876 196.800,362.336 196.620,362.200 196.400 C 362.064 196.180,361.601 196.000,361.171 196.000 C 360.741 196.000,360.077 195.835,359.695 195.633 C 358.362 194.928,355.206 193.600,354.864 193.600 C 354.525 193.600,348.151 190.199,345.000 188.336 C 338.017 184.210,328.589 175.805,323.879 169.508 C 319.699 163.918,314.473 161.839,309.397 163.748 M349.458 267.200 C 349.775 268.925,350.002 269.251,349.994 267.967 C 349.991 267.435,349.811 266.730,349.594 266.400 C 349.318 265.978,349.277 266.215,349.458 267.200 M285.000 269.845 C 281.881 270.618,278.702 273.196,277.343 276.053 C 275.101 280.767,275.103 282.393,277.356 287.200 C 278.508 289.657,298.649 309.824,301.207 311.081 C 305.107 312.998,309.588 312.860,312.700 310.727 C 313.635 310.086,314.400 309.468,314.400 309.354 C 314.400 309.239,313.901 309.501,313.292 309.935 C 310.148 312.174,305.031 312.533,301.495 310.763 C 299.088 309.558,279.218 289.723,277.732 287.042 C 273.552 279.502,279.105 270.246,287.800 270.262 C 292.502 270.271,293.781 271.021,300.125 277.491 C 307.128 284.631,306.217 284.393,310.354 280.162 C 312.249 278.223,313.358 276.989,312.819 277.419 C 312.279 277.848,310.690 279.354,309.288 280.764 L 306.739 283.329 300.869 277.545 C 293.413 270.196,290.087 268.582,285.000 269.845 M399.728 279.200 C 399.728 280.630,399.801 281.215,399.889 280.500 C 399.978 279.785,399.978 278.615,399.889 277.900 C 399.801 277.185,399.728 277.770,399.728 279.200 M398.806 286.476 C 398.811 287.995,398.923 288.429,399.200 288.000 C 399.710 287.212,399.710 284.915,399.200 284.600 C 398.952 284.447,398.802 285.161,398.806 286.476 M398.267 290.267 C 397.843 290.690,397.957 293.200,398.400 293.200 C 398.620 293.200,398.800 292.480,398.800 291.600 C 398.800 289.965,398.734 289.800,398.267 290.267 M397.200 295.824 C 397.200 296.671,397.362 297.147,397.600 297.000 C 397.820 296.864,398.000 296.223,398.000 295.576 C 398.000 294.929,397.820 294.400,397.600 294.400 C 397.380 294.400,397.200 295.041,397.200 295.824 M396.400 299.400 C 396.400 299.950,396.580 300.400,396.800 300.400 C 397.020 300.400,397.200 299.950,397.200 299.400 C 397.200 298.850,397.020 298.400,396.800 298.400 C 396.580 298.400,396.400 298.850,396.400 299.400 M395.900 301.831 C 395.735 301.997,395.605 302.598,395.612 303.167 C 395.623 304.073,395.675 304.113,396.039 303.487 C 396.495 302.705,396.381 301.346,395.900 301.831 M394.800 305.576 C 394.800 306.029,394.980 306.400,395.200 306.400 C 395.420 306.400,395.600 306.141,395.600 305.824 C 395.600 305.507,395.420 305.136,395.200 305.000 C 394.980 304.864,394.800 305.123,394.800 305.576 M394.000 308.624 C 394.000 309.204,394.173 309.540,394.400 309.400 C 394.620 309.264,394.800 308.803,394.800 308.376 C 394.800 307.949,394.620 307.600,394.400 307.600 C 394.180 307.600,394.000 308.061,394.000 308.624 M393.200 311.224 C 393.200 311.677,393.380 311.936,393.600 311.800 C 393.820 311.664,394.000 311.293,394.000 310.976 C 394.000 310.659,393.820 310.400,393.600 310.400 C 393.380 310.400,393.200 310.771,393.200 311.224 M392.400 313.376 C 392.400 314.267,393.026 314.444,393.092 313.572 C 393.124 313.148,392.981 312.800,392.775 312.800 C 392.569 312.800,392.400 313.059,392.400 313.376 M391.600 315.824 C 391.600 316.404,391.773 316.740,392.000 316.600 C 392.220 316.464,392.400 316.003,392.400 315.576 C 392.400 315.149,392.220 314.800,392.000 314.800 C 391.780 314.800,391.600 315.261,391.600 315.824 M390.800 318.167 C 390.800 318.698,390.588 319.204,390.328 319.291 C 390.034 319.389,389.970 319.741,390.158 320.224 C 390.424 320.907,390.528 320.839,391.030 319.654 C 391.698 318.076,391.759 317.200,391.200 317.200 C 390.980 317.200,390.800 317.635,390.800 318.167 M388.812 323.820 C 388.823 324.854,388.877 324.909,389.254 324.261 C 389.561 323.732,389.558 323.398,389.241 323.081 C 388.920 322.760,388.803 322.959,388.812 323.820 M387.200 327.600 C 387.200 328.040,387.020 328.400,386.800 328.400 C 386.580 328.400,386.400 328.749,386.400 329.176 C 386.400 329.603,386.220 330.064,386.000 330.200 C 385.780 330.336,385.607 330.752,385.616 331.124 C 385.625 331.496,386.165 330.748,386.816 329.462 C 388.144 326.839,388.155 326.800,387.600 326.800 C 387.380 326.800,387.200 327.160,387.200 327.600 M379.212 342.267 C 379.205 342.743,378.975 343.214,378.700 343.312 C 378.425 343.410,378.326 343.627,378.481 343.793 C 379.035 344.389,380.077 342.865,379.635 342.106 C 379.263 341.466,379.223 341.481,379.212 342.267 M376.900 346.199 C 375.892 347.755,375.824 348.000,376.400 348.000 C 376.620 348.000,376.800 347.719,376.800 347.376 C 376.800 347.015,376.990 346.870,377.252 347.032 C 377.528 347.203,377.626 347.096,377.504 346.756 C 377.394 346.450,377.579 345.885,377.914 345.500 C 378.250 345.115,378.361 344.802,378.162 344.805 C 377.963 344.808,377.395 345.435,376.900 346.199 M375.200 349.000 C 375.200 349.330,375.042 349.600,374.849 349.600 C 374.655 349.600,374.273 350.140,374.000 350.800 C 373.727 351.460,373.334 352.000,373.128 352.000 C 372.922 352.000,372.881 352.207,373.037 352.460 C 373.214 352.746,373.590 352.396,374.033 351.531 C 374.425 350.768,375.028 349.909,375.373 349.623 C 376.082 349.034,376.200 348.400,375.600 348.400 C 375.380 348.400,375.200 348.670,375.200 349.000 M372.400 353.079 C 372.400 353.305,371.925 353.965,371.345 354.545 C 370.765 355.125,370.483 355.600,370.718 355.600 C 371.269 355.600,372.965 353.231,372.644 352.910 C 372.510 352.776,372.400 352.852,372.400 353.079 M368.460 358.251 C 367.943 358.802,367.627 359.360,367.757 359.491 C 368.019 359.753,369.600 358.079,369.600 357.539 C 369.600 357.069,369.525 357.116,368.460 358.251 M364.063 363.459 C 362.887 364.669,362.017 365.751,362.129 365.863 C 362.367 366.101,366.400 362.003,366.400 361.524 C 366.400 361.054,366.398 361.056,364.063 363.459 M360.400 367.793 C 359.850 368.524,359.301 369.061,359.180 368.987 C 359.059 368.912,358.748 369.192,358.488 369.607 C 357.745 370.797,358.558 370.872,359.423 369.693 C 359.850 369.111,360.526 368.301,360.925 367.892 C 361.324 367.484,361.594 366.996,361.525 366.807 C 361.456 366.619,360.950 367.062,360.400 367.793 M356.598 371.602 C 355.528 372.784,356.101 372.970,357.201 371.798 C 357.717 371.249,357.956 370.800,357.732 370.800 C 357.507 370.800,356.997 371.161,356.598 371.602 M352.700 375.287 C 351.651 376.600,351.857 376.979,353.000 375.836 C 353.550 375.286,354.000 374.738,354.000 374.618 C 354.000 374.132,353.359 374.462,352.700 375.287 M348.862 378.658 C 347.906 379.648,347.217 380.550,347.330 380.663 C 347.562 380.895,350.800 377.572,350.800 377.102 C 350.800 376.660,350.759 376.693,348.862 378.658 M344.500 382.198 C 343.757 383.042,343.894 383.273,344.800 382.707 C 345.240 382.432,345.600 382.071,345.600 381.904 C 345.600 381.427,345.049 381.575,344.500 382.198 M340.524 385.373 C 340.262 385.671,340.156 386.022,340.287 386.154 C 340.572 386.439,341.600 385.653,341.600 385.151 C 341.600 384.640,341.072 384.748,340.524 385.373 M333.200 390.376 C 333.200 390.609,332.930 390.800,332.600 390.800 C 332.270 390.800,332.000 390.980,332.000 391.200 C 332.000 391.420,332.270 391.600,332.600 391.600 C 332.930 391.600,333.200 391.409,333.200 391.176 C 333.200 390.943,333.380 390.864,333.600 391.000 C 333.820 391.136,334.000 391.067,334.000 390.847 C 334.000 390.627,333.820 390.336,333.600 390.200 C 333.380 390.064,333.200 390.143,333.200 390.376 M330.800 392.000 C 330.800 392.220,330.517 392.400,330.171 392.400 C 329.448 392.400,328.192 393.525,328.533 393.867 C 328.659 393.992,329.042 393.816,329.383 393.474 C 329.725 393.132,330.364 392.738,330.802 392.599 C 331.622 392.339,331.916 391.600,331.200 391.600 C 330.980 391.600,330.800 391.780,330.800 392.000 M326.800 394.400 C 326.800 394.620,326.410 394.800,325.933 394.800 C 325.457 394.800,325.178 394.912,325.315 395.048 C 325.675 395.408,327.600 394.856,327.600 394.392 C 327.600 394.177,327.420 394.000,327.200 394.000 C 326.980 394.000,326.800 394.180,326.800 394.400 " stroke="none" fill="#abf38c" fill-rule="evenodd"></path><path id="path4" d="M335.524 257.813 C 332.258 258.707,331.253 259.550,319.087 271.600 C 312.534 278.090,306.979 283.467,306.742 283.548 C 306.505 283.630,303.716 281.082,300.545 277.887 C 293.679 270.970,292.511 270.271,287.800 270.262 C 279.105 270.246,273.552 279.502,277.732 287.042 C 279.248 289.777,299.076 309.543,301.600 310.836 C 304.214 312.175,309.017 312.166,311.763 310.817 C 313.953 309.741,346.743 277.291,348.172 274.786 C 351.355 269.205,349.131 261.620,343.519 258.918 C 339.981 257.214,338.474 257.005,335.524 257.813 " stroke="none" fill="#e2eff7" fill-rule="evenodd"></path></g></svg>